<svg width="48" height="48" viewBox="0 0 48 48" fill="none" xmlns="http://www.w3.org/2000/svg">
<path d="M0 42C0 38.6863 2.68629 36 6 36H12V48H0V42Z" fill="url(#paint0_linear_9995_10282)"/>
<path d="M18 21.6008C18 17.6243 21.2236 14.4008 25.2 14.4008H30V48.0008H18V21.6008Z" fill="url(#paint1_linear_9995_10282)"/>
<path d="M36 6C36 2.68629 38.6863 0 42 0H48V48H36V6Z" fill="url(#paint2_linear_9995_10282)"/>
<path d="M0 6C0 2.68629 2.68629 0 6 0H12V32H0V6Z" fill="url(#paint3_linear_9995_10282)"/>
<defs>
<linearGradient id="paint0_linear_9995_10282" x1="9.89282e-06" y1="36.75" x2="-2.01071" y2="44.2375" gradientUnits="userSpaceOnUse">
<stop offset="0.000229369" stop-color="#FF741F"/>
<stop offset="1" stop-color="#ED6017"/>
</linearGradient>
<linearGradient id="paint1_linear_9995_10282" x1="20.4" y1="20.8623" x2="12.9955" y2="36.6454" gradientUnits="userSpaceOnUse">
<stop offset="0.000229369" stop-color="#FF741F"/>
<stop offset="1" stop-color="#D1410B"/>
</linearGradient>
<linearGradient id="paint2_linear_9995_10282" x1="28.8" y1="3.6" x2="15.2176" y2="24.8774" gradientUnits="userSpaceOnUse">
<stop offset="0.000229369" stop-color="#FF741F"/>
<stop offset="1" stop-color="#B82500"/>
</linearGradient>
<linearGradient id="paint3_linear_9995_10282" x1="-6" y1="2.39104e-06" x2="-16.693" y2="15.285" gradientUnits="userSpaceOnUse">
<stop stop-color="#C12F04"/>
<stop offset="1" stop-color="#E95B15"/>
</linearGradient>
</defs>
</svg>
