<svg width="160" height="49" viewBox="0 0 160 49" fill="none" xmlns="http://www.w3.org/2000/svg">
<path d="M75.5243 4.024H82.3283V28H75.5243V4.024ZM65.0123 0.999998H92.8403V7.012H65.0123V0.999998ZM109.558 28.576C106.39 28.576 103.606 27.988 101.206 26.812C98.8303 25.636 96.9823 23.992 95.6623 21.88C94.3423 19.768 93.6823 17.308 93.6823 14.5C93.6823 11.692 94.3423 9.232 95.6623 7.12C96.9823 5.008 98.8303 3.364 101.206 2.188C103.606 1.012 106.39 0.423999 109.558 0.423999C112.726 0.423999 115.498 1.012 117.874 2.188C120.274 3.364 122.134 5.008 123.454 7.12C124.798 9.232 125.47 11.692 125.47 14.5C125.47 17.308 124.798 19.768 123.454 21.88C122.134 23.992 120.274 25.636 117.874 26.812C115.498 27.988 112.726 28.576 109.558 28.576ZM109.558 22.492C111.43 22.492 113.038 22.18 114.382 21.556C115.726 20.908 116.758 19.984 117.478 18.784C118.222 17.584 118.594 16.156 118.594 14.5C118.594 12.844 118.222 11.416 117.478 10.216C116.758 9.016 115.726 8.104 114.382 7.48C113.038 6.832 111.43 6.508 109.558 6.508C107.71 6.508 106.114 6.832 104.77 7.48C103.426 8.104 102.382 9.016 101.638 10.216C100.894 11.416 100.522 12.844 100.522 14.5C100.522 16.156 100.894 17.584 101.638 18.784C102.382 19.984 103.426 20.908 104.77 21.556C106.114 22.18 107.71 22.492 109.558 22.492ZM157.616 0.999998V28H150.812V3.952L153.908 7.012H133.244L136.304 3.952V28H129.5V0.999998H157.616Z" fill="#141414"/>
<g clip-path="url(#clip0_9965_13914)">
<path d="M0 43C0 39.6863 2.68629 37 6 37H12V49H0V43Z" fill="url(#paint0_linear_9965_13914)"/>
<path d="M18 22.6009C18 18.6244 21.2236 15.4009 25.2 15.4009H30V49.0009H18V22.6009Z" fill="url(#paint1_linear_9965_13914)"/>
<path d="M36 7C36 3.68629 38.6863 1 42 1H48V49H36V7Z" fill="url(#paint2_linear_9965_13914)"/>
<path d="M0 7C0 3.68629 2.68629 1 6 1H12V33H0V7Z" fill="url(#paint3_linear_9965_13914)"/>
</g>
<path fill-rule="evenodd" clip-rule="evenodd" d="M99.4567 35H97.4151C97.6168 35.845 98.0358 36.4643 98.6701 36.858C99.3055 37.2517 100.082 37.4485 100.999 37.4485C101.917 37.4485 102.693 37.2517 103.329 36.858C103.963 36.4643 104.382 35.845 104.584 35H102.526C102.416 35.3361 102.229 35.5953 101.968 35.7778C101.716 35.9602 101.392 36.0514 100.999 36.0514C100.607 36.0514 100.279 35.9602 100.016 35.7778C99.7644 35.5953 99.5775 35.3361 99.4567 35ZM86.8334 40.0859L89.0347 44.7365H84.6321L86.8334 40.0859ZM89.9755 46.7241H83.6912L82.6141 48.9998H79.8768L85.185 38.1975H88.4818L93.7899 48.9998H91.0527L89.9755 46.7241ZM94.9352 38.1975V48.9998H98.187L104.674 40.466V48.9998H107.185V38.1975H103.842L97.4456 46.6036V38.1975H94.9352ZM112.007 38.1975H109.436V48.9998H112.007V44.6068H118.51V48.9998H121.08V38.1975H118.51V42.4608H112.007V38.1975ZM123.331 38.1975V48.9998H126.582L133.071 40.4646V48.9998H135.581V38.1975H132.239L125.842 46.6028V38.1975H123.331ZM146.906 42.4608H140.403V38.1975H137.832V48.9998H140.403V44.6068H146.906V48.9998H149.477V38.1975H146.906V42.4608ZM160 38.1975V40.3723H154.298V48.9998H151.727V38.1975H160ZM67 47.6538C67 46.9101 67.6406 46.3073 68.4308 46.3073H69.8615V49.0002H67V47.6538ZM73.0088 41.4597C72.0606 41.4597 71.2919 42.1831 71.2919 43.0754V48.9997H74.1534V41.4597H73.0088ZM75.5847 39.575C75.5847 38.8314 76.2253 38.2286 77.0155 38.2286H78.4463V49H75.5847V39.575ZM68.4308 38.2286C67.6406 38.2286 67 38.8314 67 39.575V45.4096H69.8615V38.2286H68.4308Z" fill="url(#paint4_linear_9965_13914)"/>
<defs>
<linearGradient id="paint0_linear_9965_13914" x1="9.94863e-06" y1="37.75" x2="-2.01071" y2="45.2375" gradientUnits="userSpaceOnUse">
<stop offset="0.000229369" stop-color="#FF741F"/>
<stop offset="1" stop-color="#ED6017"/>
</linearGradient>
<linearGradient id="paint1_linear_9965_13914" x1="20.4" y1="21.8624" x2="12.9955" y2="37.6455" gradientUnits="userSpaceOnUse">
<stop offset="0.000229369" stop-color="#FF741F"/>
<stop offset="1" stop-color="#D1410B"/>
</linearGradient>
<linearGradient id="paint2_linear_9965_13914" x1="28.8" y1="4.6" x2="15.2176" y2="25.8774" gradientUnits="userSpaceOnUse">
<stop offset="0.000229369" stop-color="#FF741F"/>
<stop offset="1" stop-color="#B82500"/>
</linearGradient>
<linearGradient id="paint3_linear_9965_13914" x1="-6" y1="1" x2="-16.693" y2="16.285" gradientUnits="userSpaceOnUse">
<stop stop-color="#C12F04"/>
<stop offset="1" stop-color="#E95B15"/>
</linearGradient>
<linearGradient id="paint4_linear_9965_13914" x1="67" y1="42" x2="160" y2="42" gradientUnits="userSpaceOnUse">
<stop stop-color="#D8480D"/>
<stop offset="0.339" stop-color="#CB3A08"/>
<stop offset="0.739" stop-color="#FE731E"/>
<stop offset="1" stop-color="#ED5F17"/>
</linearGradient>
<clipPath id="clip0_9965_13914">
<rect width="48" height="48" fill="white" transform="translate(0 1)"/>
</clipPath>
</defs>
</svg>
