<svg width="20" height="20" viewBox="0 0 20 20" fill="none" xmlns="http://www.w3.org/2000/svg">
<path d="M19.5837 9.58337C19.817 9.58337 20.0003 9.76671 20.0003 10C20.0003 10.2334 19.817 10.4167 19.5837 10.4167H19.167V9.58337H19.5837Z" fill="#141414"/>
<path d="M10.417 9.58337H19.167V10.4167H10.417V9.58337Z" fill="#141414"/>
<path d="M17.9167 20H10C10.2333 20 10.4167 19.8167 10.4167 19.5833V19.1667H17.9167C18.6083 19.1667 19.1667 18.6083 19.1667 17.9167V10.4167H19.5833C19.8167 10.4167 20 10.2333 20 10V17.9167C20 19.0667 19.0667 20 17.9167 20Z" fill="#141414"/>
<path d="M20 2.08333V10C20 9.76667 19.8167 9.58333 19.5833 9.58333H19.1667V2.08333C19.1667 1.39167 18.6083 0.833333 17.9167 0.833333H10.4167V0.416667C10.4167 0.183333 10.2333 0 10 0H17.9167C19.0667 0 20 0.933333 20 2.08333Z" fill="#141414"/>
<path d="M16.667 5C16.9003 5 17.0837 5.18333 17.0837 5.41667C17.0837 5.65 16.9003 5.83333 16.667 5.83333H13.3337C13.1003 5.83333 12.917 5.65 12.917 5.41667C12.917 5.18333 13.1003 5 13.3337 5H16.667Z" fill="#141414"/>
<path d="M16.667 13.3334C16.9003 13.3334 17.0837 13.5167 17.0837 13.75C17.0837 13.9834 16.9003 14.1667 16.667 14.1667H13.3337C13.1003 14.1667 12.917 13.9834 12.917 13.75C12.917 13.5167 13.1003 13.3334 13.3337 13.3334H16.667Z" fill="#141414"/>
<path d="M16.667 15.8334C16.9003 15.8334 17.0837 16.0167 17.0837 16.25C17.0837 16.4834 16.9003 16.6667 16.667 16.6667H13.3337C13.1003 16.6667 12.917 16.4834 12.917 16.25C12.917 16.0167 13.1003 15.8334 13.3337 15.8334H16.667Z" fill="#141414"/>
<path d="M10.4163 19.1666V19.5833C10.4163 19.8166 10.233 20 9.99967 20C9.76634 20 9.58301 19.8166 9.58301 19.5833V19.1666H10.4163Z" fill="#141414"/>
<path d="M9.58301 10.4166H10.4163V19.1666H9.58301V10.4166Z" fill="#141414"/>
<path d="M9.58301 9.58337H10.4163V10.4167H9.58301V9.58337Z" fill="#141414"/>
<path d="M9.58301 0.833374H10.4163V9.58337H9.58301V0.833374Z" fill="#141414"/>
<path d="M10.4163 0.416667V0.833333H9.58301V0.416667C9.58301 0.183333 9.76634 0 9.99967 0C10.233 0 10.4163 0.183333 10.4163 0.416667Z" fill="#141414"/>
<path d="M0.833008 9.58337H9.58301V10.4167H0.833008V9.58337Z" fill="#141414"/>
<path d="M6.66699 5C6.90033 5 7.08366 5.18333 7.08366 5.41667C7.08366 5.65 6.90033 5.83333 6.66699 5.83333H5.41699V5H6.66699Z" fill="#141414"/>
<path d="M6.54167 15.9583C6.70833 16.1167 6.70833 16.3833 6.54167 16.5417C6.46667 16.625 6.35833 16.6667 6.25 16.6667C6.14167 16.6667 6.03333 16.625 5.95833 16.5417L5 15.5833L5.58333 15L6.54167 15.9583Z" fill="#141414"/>
<path d="M5.95833 13.4584C6.11667 13.2917 6.38333 13.2917 6.54167 13.4584C6.70833 13.6167 6.70833 13.8834 6.54167 14.0417L5.58333 15L5 14.4167L5.95833 13.4584Z" fill="#141414"/>
<path d="M4.41406 14.9991L4.99743 14.4158L5.58079 14.9991L4.99743 15.5825L4.41406 14.9991Z" fill="#141414"/>
<path d="M5.41634 5.83337V7.08337C5.41634 7.31671 5.23301 7.50004 4.99967 7.50004C4.76634 7.50004 4.58301 7.31671 4.58301 7.08337V5.83337H5.41634Z" fill="#141414"/>
<path d="M4.58301 5H5.41634V5.83333H4.58301V5Z" fill="#141414"/>
<path d="M5.41634 3.75004V5.00004H4.58301V3.75004C4.58301 3.51671 4.76634 3.33337 4.99967 3.33337C5.23301 3.33337 5.41634 3.51671 5.41634 3.75004Z" fill="#141414"/>
<path d="M4.99967 14.4167L4.41634 15L3.45801 14.0417C3.29134 13.8834 3.29134 13.6167 3.45801 13.4584C3.61634 13.2917 3.88301 13.2917 4.04134 13.4584L4.99967 14.4167Z" fill="#141414"/>
<path d="M4.58366 5V5.83333H3.33366C3.10033 5.83333 2.91699 5.65 2.91699 5.41667C2.91699 5.18333 3.10033 5 3.33366 5H4.58366Z" fill="#141414"/>
<path d="M4.04134 16.5417C3.96634 16.625 3.85801 16.6667 3.74967 16.6667C3.64134 16.6667 3.53301 16.625 3.45801 16.5417C3.29134 16.3833 3.29134 16.1167 3.45801 15.9583L4.41634 15L4.99967 15.5833L4.04134 16.5417Z" fill="#141414"/>
<path d="M0.833333 9.58337V10.4167H0.416667C0.183333 10.4167 0 10.2334 0 10C0 9.76671 0.183333 9.58337 0.416667 9.58337H0.833333Z" fill="#141414"/>
<path d="M0 2.08333C0 0.933333 0.933333 0 2.08333 0H10C9.76667 0 9.58333 0.183333 9.58333 0.416667V0.833333H2.08333C1.39167 0.833333 0.833333 1.39167 0.833333 2.08333V9.58333H0.416667C0.183333 9.58333 0 9.76667 0 10V2.08333Z" fill="#141414"/>
<path d="M0.833333 17.9167C0.833333 18.6083 1.39167 19.1667 2.08333 19.1667H9.58333V19.5833C9.58333 19.8167 9.76667 20 10 20H2.08333C0.933333 20 0 19.0667 0 17.9167V10C0 10.2333 0.183333 10.4167 0.416667 10.4167H0.833333V17.9167Z" fill="#141414"/>
</svg>
