<svg width="22" height="22" viewBox="0 0 22 22" fill="none" xmlns="http://www.w3.org/2000/svg">
<path d="M12.6667 8.48083L20.0083 9.95022C20.6 10.0762 21 10.58 21 11.1761V19.7405C21 20.4374 20.4417 21 19.75 21H12.25C12.4833 21 12.6667 20.8153 12.6667 20.5802V20.1604H19.75C19.975 20.1604 20.1667 19.9756 20.1667 19.7405V11.1761C20.1667 10.983 20.0333 10.8067 19.8417 10.7647L12.6667 9.33728V8.48083Z" fill="#141414"/>
<path d="M17.2503 12.6034C17.4837 12.6034 17.667 12.7881 17.667 13.0232C17.667 13.2583 17.4837 13.443 17.2503 13.443H15.5837C15.3503 13.443 15.167 13.2583 15.167 13.0232C15.167 12.7881 15.3503 12.6034 15.5837 12.6034H17.2503Z" fill="#141414"/>
<path d="M17.2503 15.1223C17.4837 15.1223 17.667 15.307 17.667 15.5421C17.667 15.7772 17.4837 15.962 17.2503 15.962H15.5837C15.3503 15.962 15.167 15.7772 15.167 15.5421C15.167 15.307 15.3503 15.1223 15.5837 15.1223H17.2503Z" fill="#141414"/>
<path d="M17.2503 17.6412C17.4837 17.6412 17.667 17.826 17.667 18.0611C17.667 18.2962 17.4837 18.4809 17.2503 18.4809H15.5837C15.3503 18.4809 15.167 18.2962 15.167 18.0611C15.167 17.826 15.3503 17.6412 15.5837 17.6412H17.2503Z" fill="#141414"/>
<path d="M12.6663 20.5801C12.6663 20.8152 12.483 20.9999 12.2497 20.9999C12.0163 20.9999 11.833 20.8152 11.833 20.5801V20.1602V8.82497C11.833 8.69902 11.8913 8.58147 11.983 8.49751C12.083 8.42194 12.208 8.38835 12.333 8.41354L12.6663 8.48072V9.33716V20.1602V20.5801Z" fill="#141414"/>
<path d="M11.8337 20.1603V20.5801C11.8337 20.8152 12.017 20.9999 12.2503 20.9999H8.91699C9.15033 20.9999 9.33366 20.8152 9.33366 20.5801V20.1603H11.8337Z" fill="#141414"/>
<path d="M9.75033 5.04651C9.98366 5.04651 10.167 5.23123 10.167 5.46633C10.167 5.70144 9.98366 5.88616 9.75033 5.88616H8.08366C7.85033 5.88616 7.66699 5.70144 7.66699 5.46633C7.66699 5.23123 7.85033 5.04651 8.08366 5.04651H9.75033Z" fill="#141414"/>
<path d="M10.167 7.98538C10.167 8.22048 9.98366 8.4052 9.75033 8.4052H8.08366C7.85033 8.4052 7.66699 8.22048 7.66699 7.98538C7.66699 7.75027 7.85033 7.56555 8.08366 7.56555H9.75033C9.98366 7.56555 10.167 7.75027 10.167 7.98538Z" fill="#141414"/>
<path d="M9.75033 10.0845C9.98366 10.0845 10.167 10.2692 10.167 10.5043C10.167 10.7394 9.98366 10.9241 9.75033 10.9241H8.08366C7.85033 10.9241 7.66699 10.7394 7.66699 10.5043C7.66699 10.2692 7.85033 10.0845 8.08366 10.0845H9.75033Z" fill="#141414"/>
<path d="M9.75033 12.6034C9.98366 12.6034 10.167 12.7881 10.167 13.0232C10.167 13.2583 9.98366 13.443 9.75033 13.443H8.08366C7.85033 13.443 7.66699 13.2583 7.66699 13.0232C7.66699 12.7881 7.85033 12.6034 8.08366 12.6034H9.75033Z" fill="#141414"/>
<path d="M6 13.0232C6 13.2583 5.81667 13.443 5.58333 13.443H3.91667C3.68333 13.443 3.5 13.2583 3.5 13.0232C3.5 12.7881 3.68333 12.6034 3.91667 12.6034H5.58333C5.81667 12.6034 6 12.7881 6 13.0232Z" fill="#141414"/>
<path d="M5.58333 5.04651C5.81667 5.04651 6 5.23123 6 5.46633C6 5.70144 5.81667 5.88616 5.58333 5.88616H3.91667C3.68333 5.88616 3.5 5.70144 3.5 5.46633C3.5 5.23123 3.68333 5.04651 3.91667 5.04651H5.58333Z" fill="#141414"/>
<path d="M5.58333 7.56555C5.81667 7.56555 6 7.75027 6 7.98538C6 8.22048 5.81667 8.4052 5.58333 8.4052H3.91667C3.68333 8.4052 3.5 8.22048 3.5 7.98538C3.5 7.75027 3.68333 7.56555 3.91667 7.56555H5.58333Z" fill="#141414"/>
<path d="M5.58333 10.0845C5.81667 10.0845 6 10.2692 6 10.5043C6 10.7394 5.81667 10.9241 5.58333 10.9241H3.91667C3.68333 10.9241 3.5 10.7394 3.5 10.5043C3.5 10.2692 3.68333 10.0845 3.91667 10.0845H5.58333Z" fill="#141414"/>
<path d="M8.49967 16.3818C8.49967 16.1467 8.30801 15.962 8.08301 15.962H5.58301C5.34967 15.962 5.16634 16.1467 5.16634 16.3818V20.1602H4.33301V16.3818C4.33301 15.6849 4.89134 15.1223 5.58301 15.1223H8.08301C8.77467 15.1223 9.33301 15.6849 9.33301 16.3818V20.1602H8.49967V16.3818Z" fill="#141414"/>
<path d="M5.16634 20.1603H8.49967H9.33301V20.5801C9.33301 20.8152 9.14967 20.9999 8.91634 20.9999H4.74967C4.51634 20.9999 4.33301 20.8152 4.33301 20.5801V20.1603H5.16634Z" fill="#141414"/>
<path d="M2.45833 1.01635L11.6167 2.41856C12.225 2.51932 12.6667 3.0399 12.6667 3.66124V8.48083L12.3333 8.41366C12.2083 8.38847 12.0833 8.42205 11.9833 8.49762C11.8917 8.58159 11.8333 8.69914 11.8333 8.82508V3.66124C11.8333 3.45133 11.6833 3.275 11.4833 3.24142L2.325 1.8476C2.3 1.8392 2.275 1.8392 2.25 1.8392C2.15 1.8392 2.05833 1.87279 1.98333 1.93996C1.88333 2.02393 1.83333 2.13308 1.83333 2.25903V19.7405C1.83333 19.9756 2.025 20.1603 2.25 20.1603H4.33333V20.5802C4.33333 20.8153 4.51667 21 4.75 21H2.25C1.55833 21 1 20.4374 1 19.7405V2.25903C1 1.88958 1.15833 1.53693 1.44167 1.30183C1.725 1.05833 2.09167 0.957572 2.45833 1.01635Z" fill="#141414"/>
</svg>
