<svg width="22" height="22" viewBox="0 0 22 22" fill="none" xmlns="http://www.w3.org/2000/svg">
<g clip-path="url(#clip0_4347_25743)">
<path d="M2.76723 10.4004V3.47372H0V2.59959H6.61187V3.47372H3.8333V10.4004H2.76723ZM6.94616 6.49447C6.94616 5.67566 7.0936 4.9675 7.38847 4.36999C7.68333 3.77248 8.10674 3.31143 8.65867 2.98686C9.21817 2.66229 9.88351 2.5 10.6547 2.5C11.4183 2.5 12.0761 2.66229 12.628 2.98686C13.1875 3.31143 13.6185 3.77248 13.9209 4.36999C14.2234 4.9675 14.3745 5.67197 14.3745 6.4834C14.3745 7.30221 14.2234 8.01407 13.9209 8.61895C13.6185 9.21646 13.1875 9.68119 12.628 10.0131C12.0761 10.3377 11.4183 10.5 10.6547 10.5C9.88351 10.5 9.22195 10.3377 8.67001 10.0131C8.11808 9.68119 7.6909 9.21646 7.38847 8.61895C7.0936 8.01407 6.94616 7.3059 6.94616 6.49447ZM8.05759 6.49447C8.05759 7.46819 8.27686 8.22798 8.71537 8.77386C9.1539 9.31974 9.80035 9.59267 10.6547 9.59267C11.4789 9.59267 12.1177 9.32342 12.5713 8.78492C13.0326 8.23905 13.2631 7.47556 13.2631 6.49447C13.2631 5.51337 13.0363 4.75357 12.5827 4.21508C12.129 3.67658 11.4864 3.40733 10.6547 3.40733C9.80035 3.40733 9.1539 3.67658 8.71537 4.21508C8.27686 4.75357 8.05759 5.51337 8.05759 6.49447ZM16.0459 10.4004V2.59959H19.3575C20.2118 2.59959 20.8659 2.79876 21.3195 3.1971C21.7732 3.59544 22 4.145 22 4.84578C22 5.54657 21.7732 6.09982 21.3195 6.50553C20.8659 6.90387 20.2118 7.10304 19.3575 7.10304H17.1006V10.4004H16.0459ZM17.1006 6.2621H19.2555C19.8149 6.2621 20.2383 6.14039 20.5257 5.89696C20.8129 5.64615 20.9566 5.29576 20.9566 4.84578C20.9566 4.39581 20.8129 4.0491 20.5257 3.80567C20.2383 3.56224 19.8149 3.44053 19.2555 3.44053H17.1006V6.2621Z" fill="black"/>
</g>
<path d="M3.40646 12.7475C3.43904 12.6613 3.56096 12.6613 3.59354 12.7475L4.347 14.7408C4.36109 14.7781 4.39599 14.8035 4.43582 14.8054L6.56443 14.906C6.65647 14.9103 6.69415 15.0263 6.62224 15.0839L4.95929 16.4164C4.92818 16.4414 4.91485 16.4824 4.92536 16.5208L5.48746 18.5764C5.51177 18.6652 5.41313 18.7369 5.33611 18.6863L3.55489 17.5166C3.52157 17.4947 3.47843 17.4947 3.44511 17.5166L1.66389 18.6863C1.58687 18.7369 1.48823 18.6652 1.51254 18.5764L2.07464 16.5208C2.08515 16.4824 2.07182 16.4414 2.04071 16.4164L0.377756 15.0839C0.305852 15.0263 0.343528 14.9103 0.435568 14.906L2.56418 14.8054C2.60401 14.8035 2.63891 14.7781 2.653 14.7408L3.40646 12.7475Z" fill="#FF741F" stroke="#FF741F" stroke-width="0.5"/>
<path d="M10.9065 12.7475C10.939 12.6613 11.061 12.6613 11.0935 12.7475L11.847 14.7408C11.8611 14.7781 11.896 14.8035 11.9358 14.8054L14.0644 14.906C14.1565 14.9103 14.1941 15.0263 14.1222 15.0839L12.4593 16.4164C12.4282 16.4414 12.4148 16.4824 12.4254 16.5208L12.9875 18.5764C13.0118 18.6652 12.9131 18.7369 12.8361 18.6863L11.0549 17.5166C11.0216 17.4947 10.9784 17.4947 10.9451 17.5166L9.16389 18.6863C9.08687 18.7369 8.98823 18.6652 9.01254 18.5764L9.57464 16.5208C9.58515 16.4824 9.57182 16.4414 9.54071 16.4164L7.87776 15.0839C7.80585 15.0263 7.84353 14.9103 7.93557 14.906L10.0642 14.8054C10.104 14.8035 10.1389 14.7781 10.153 14.7408L10.9065 12.7475Z" fill="#FF741F" stroke="#FF741F" stroke-width="0.5"/>
<path d="M18.4065 12.7475C18.439 12.6613 18.561 12.6613 18.5935 12.7475L19.347 14.7408C19.3611 14.7781 19.396 14.8035 19.4358 14.8054L21.5644 14.906C21.6565 14.9103 21.6941 15.0263 21.6222 15.0839L19.9593 16.4164C19.9282 16.4414 19.9148 16.4824 19.9254 16.5208L20.4875 18.5764C20.5118 18.6652 20.4131 18.7369 20.3361 18.6863L18.5549 17.5166C18.5216 17.4947 18.4784 17.4947 18.4451 17.5166L16.6639 18.6863C16.5869 18.7369 16.4882 18.6652 16.5125 18.5764L17.0746 16.5208C17.0852 16.4824 17.0718 16.4414 17.0407 16.4164L15.3778 15.0839C15.3059 15.0263 15.3435 14.9103 15.4356 14.906L17.5642 14.8054C17.604 14.8035 17.6389 14.7781 17.653 14.7408L18.4065 12.7475Z" fill="#FF741F" stroke="#FF741F" stroke-width="0.5"/>
<defs>
<clipPath id="clip0_4347_25743">
<rect width="22" height="8" fill="white" transform="translate(0 2.5)"/>
</clipPath>
</defs>
</svg>
