<svg width="22" height="22" viewBox="0 0 22 22" fill="none" xmlns="http://www.w3.org/2000/svg">
<path fill-rule="evenodd" clip-rule="evenodd" d="M11 1C5.48096 1 1 5.48096 1 11C1 16.519 5.48096 21 11 21C16.519 21 21 16.519 21 11C21 5.48096 16.519 1 11 1ZM11 1.8C16.0778 1.8 20.2 5.92224 20.2 11C20.2 16.0778 16.0778 20.2 11 20.2C5.92224 20.2 1.8 16.0778 1.8 11C1.8 5.92224 5.92224 1.8 11 1.8Z" fill="#141414"/>
<path d="M15 7.14334L13.4182 15.2191C13.4182 15.2191 13.1969 15.779 12.5889 15.5105L8.93925 12.6766L8.92233 12.6683C9.41531 12.22 13.2381 8.73916 13.4052 8.58138C13.6638 8.33702 13.5033 8.19154 13.203 8.37613L7.55621 12.0077L5.3777 11.2654C5.3777 11.2654 5.03487 11.1419 5.00189 10.8734C4.96848 10.6044 5.38899 10.4589 5.38899 10.4589L14.2701 6.93063C14.2701 6.93063 15 6.60584 15 7.14334Z" fill="#141414"/>
</svg>
